<svg width="47" height="59" viewBox="0 0 47 59" fill="none" xmlns="http://www.w3.org/2000/svg">
<path id="doc" d="M9.1117 58.4981H37.8883C43.6923 58.4981 46.6887 55.4477 46.6887 49.6168V25.1053C46.6887 21.326 46.2028 19.5984 43.8542 17.1958L29.7359 2.86147C27.4413 0.5399 25.5516 0 22.1503 0H9.1117C3.33478 0 0.31134 3.05043 0.31134 8.90834V49.6168C0.31134 55.4477 3.33478 58.4981 9.1117 58.4981ZM9.57062 53.0991C6.9791 53.0991 5.68334 51.7494 5.68334 49.2658V9.23228C5.68334 6.77574 6.9791 5.399 9.59761 5.399H21.0435V20.0843C21.0435 23.9985 22.9601 25.8882 26.8474 25.8882H41.3167V49.2658C41.3167 51.7494 40.021 53.0991 37.4024 53.0991H9.57062ZM27.3603 21.1641C26.2265 21.1641 25.7406 20.6782 25.7406 19.5714V6.10086L40.5878 21.1641H27.3603Z" fill="#404041"/>
</svg>
