<svg width="65" height="65" viewBox="0 0 65 65" fill="none" xmlns="http://www.w3.org/2000/svg">
<path d="M32.5 2.49999C15.94 2.49999 2.5 15.943 2.5 32.5C2.5 49.063 15.94 62.5 32.5 62.5C49.09 62.5 62.5 49.063 62.5 32.5C62.5 15.943 49.09 2.49999 32.5 2.49999Z" fill="#AE445A"/>
<path d="M24.7251 25C25.3129 23.3292 26.473 21.9203 28 21.0228C29.527 20.1254 31.3223 19.7974 33.068 20.0968C34.8137 20.3962 36.3971 21.3038 37.5378 22.6588C38.6784 24.0138 39.3027 25.7288 39.3001 27.5C39.3001 32.5 31.8001 35 31.8001 35" stroke="white" stroke-width="5" stroke-linecap="round" stroke-linejoin="round"/>
<path d="M32 45H32.025" stroke="white" stroke-width="5" stroke-linecap="round" stroke-linejoin="round"/>
</svg>
