<svg width="40" height="40" viewBox="0 0 40 40" fill="none" xmlns="http://www.w3.org/2000/svg">
<path fill-rule="evenodd" clip-rule="evenodd" d="M0.666504 19.6016C0.666504 8.78346 9.31666 0 19.9749 0C30.6524 0 39.2833 8.78346 39.2833 19.6016C39.2833 30.4236 30.6524 39.2031 19.9749 39.2031C9.31666 39.2031 0.666504 30.4236 0.666504 19.6016ZM18.276 12.1732C18.276 11.2343 19.0483 10.4482 19.9751 10.4482C20.9019 10.4482 21.6549 11.2343 21.6549 12.1732V20.8371C21.6549 21.7799 20.9019 22.5424 19.9751 22.5424C19.0483 22.5424 18.276 21.7799 18.276 20.8371V12.1732ZM19.9934 28.7769C19.0473 28.7769 18.2943 27.9928 18.2943 27.0519C18.2943 26.1111 19.0473 25.3466 19.9741 25.3466C20.9202 25.3466 21.6733 26.1111 21.6733 27.0519C21.6733 27.9928 20.9202 28.7769 19.9934 28.7769Z" fill="#AE445A"/>
</svg>
