<svg width="21" height="21" viewBox="0 0 21 21" fill="none" xmlns="http://www.w3.org/2000/svg">
<mask id="mask0_2367_23085" style="mask-type:alpha" maskUnits="userSpaceOnUse" x="0" y="0" width="21" height="21">
<path fill-rule="evenodd" clip-rule="evenodd" d="M4.76827 19.3069L5.15175 19.5343C6.76386 20.4905 8.61177 20.9964 10.4959 20.9972H10.5002C16.2875 20.9972 20.9977 16.2892 21 10.5024C21.0011 7.69825 19.91 5.06148 17.9276 3.07782C15.9451 1.09403 13.3089 0.000911135 10.5043 0C4.7126 0 0.0023102 4.70753 8.42148e-07 10.4938C-0.0007892 12.4769 0.554306 14.4081 1.60537 16.079L1.85502 16.4761L0.794296 20.3488L4.76827 19.3069ZM16.8645 13.5057C16.7856 13.374 16.5752 13.2951 16.2596 13.1372C15.9439 12.9792 14.392 12.216 14.1027 12.1106C13.8133 12.0055 13.6029 11.9529 13.3925 12.2686C13.1821 12.5844 12.5772 13.2951 12.393 13.5057C12.2089 13.7162 12.0248 13.7426 11.7092 13.5847C11.3935 13.4268 10.3764 13.0936 9.17076 12.0187C8.23237 11.1821 7.59887 10.149 7.41473 9.83316C7.23065 9.51736 7.3951 9.34655 7.55311 9.18928C7.69514 9.04788 7.86882 8.82076 8.02665 8.63653C8.18448 8.45236 8.23705 8.32067 8.3423 8.1102C8.4475 7.8996 8.39487 7.71543 8.31599 7.5575C8.23705 7.39951 7.6058 5.84657 7.34278 5.21485C7.0865 4.59971 6.82627 4.68299 6.63253 4.67327C6.44863 4.66416 6.23799 4.66216 6.0276 4.66216C5.81714 4.66216 5.47518 4.74106 5.18584 5.05698C4.8965 5.37278 4.08106 6.13613 4.08106 7.68895C4.08106 9.24195 5.21215 10.742 5.36998 10.9526C5.52781 11.1633 7.59577 14.3498 10.7622 15.7165C11.5153 16.0416 12.1033 16.2357 12.5617 16.3811C13.3179 16.6212 14.0059 16.5874 14.5498 16.5061C15.1563 16.4156 16.4174 15.7429 16.6804 15.006C16.9434 14.2689 16.9434 13.6373 16.8645 13.5057Z" fill="black"/>
</mask>
<g mask="url(#mask0_2367_23085)">
<path d="M27.8476 -6.99219H-7.64648V28.5019H27.8476V-6.99219Z" fill="#3AB471"/>
</g>
</svg>
